<svg version="1.1"
    xmlns="http://www.w3.org/2000/svg"
    xmlns:xlink="http://www.w3.org/1999/xlink" width="135" height="95" viewBox="-28,0,135,95">
    <g transform="translate(-200,-133)">
        <g data-paper-data="{&quot;isPaintingLayer&quot;:true}" fill-rule="nonzero" stroke="none" stroke-width="1" stroke-linecap="butt" stroke-linejoin="miter" stroke-miterlimit="10" stroke-dasharray="" stroke-dashoffset="0" style="mix-blend-mode: normal">
            <g>
                <path d="M296.07153,204.64514c-2.35207,4.89092 -6.00238,8.68153 -10.27202,11.89715c-7.60437,5.72713 -16.30216,8.84264 -25.6458,10.04516c-11.43363,1.47128 -22.75584,0.74561 -33.80876,-2.75123c-5.46601,-1.72926 -10.46296,-4.33836 -14.66007,-8.32014c-3.08522,-2.8708 -5.40886,-6.46314 -6.76212,-10.45422c-0.27624,-0.82261 -0.56219,-1.02953 -1.4963,-0.83098c-13.60086,2.89122 -27.17128,-5.61842 -30.10318,-18.89552c-1.32208,-5.98695 0.18938,-11.5177 3.07869,-16.7629c0.20443,-0.43065 0.45382,-0.83848 0.744,-1.21669c1.53553,-1.75764 2.29767,-3.66154 1.28801,-5.96307c-0.18892,-0.4306 -0.01616,-0.69102 0.39969,-0.906c3.79298,-1.96074 7.57705,-3.93908 11.48829,-5.9772c-0.50569,3.90302 -0.99469,7.6337 -1.46677,11.36652c-0.07097,0.56127 -0.32338,0.87471 -0.8974,0.90554c-0.09511,0.00512 -0.1898,0.03312 -0.28434,0.03151c-3.12758,-0.05317 -4.82403,1.80084 -6.18824,4.3607c-2.79412,5.24294 -4.2358,10.64704 -1.45554,16.25186c3.76719,7.59443 11.98848,13.79299 22.26332,11.23959c0.90371,-0.22456 1.08602,-0.5183 1.02785,-1.41868c-0.34867,-5.67717 0.50619,-11.36394 2.50856,-16.68769c0.65699,-0.68636 1.03056,-0.36222 1.29385,0.36108c-0.08697,0.50974 0.24446,0.83128 0.53358,1.16937c0.26458,0.24954 0.46017,0.56322 0.5678,0.91062c0.0157,0.46219 0.46814,0.66016 0.6335,1.0364c0.05201,0.12825 0.08725,0.26269 0.10485,0.39996c-0.31791,2.35619 -0.89928,4.66204 -1.15443,7.03301c-1.17013,10.87335 3.12781,19.8883 12.9462,25.19897c7.21823,3.84214 15.0247,5.29856 23.08655,5.92155c6.3204,0.50731 12.67963,0.21011 18.92516,-0.88449c11.21885,-2.20359 20.9393,-6.94527 27.84981,-16.44659c0.1581,-0.23958 0.3505,-0.45467 0.57105,-0.63839c1.08125,-0.65947 2.36673,-0.20898 3.48958,-0.65008c0.54045,0.06849 1.24828,-0.20439 1.39462,0.67487z" fill="#000000"/>
                <path d="M208.10223,183.12001l-0.57468,-0.84572c-0.25957,-0.3469 -0.45316,-0.73857 -0.57112,-1.15546c-0.13155,-0.67746 -0.53228,-0.8136 -1.12655,-0.55997c0.58094,-1.38656 0.06092,-2.79691 0.11352,-4.18901c0.11173,-2.95543 -0.35325,-5.54596 -2.0785,-8.16892c-1.81891,-2.76547 -0.93297,-5.96429 1.517,-8.4389c0.59038,-0.5963 0.66108,-1.03965 0.44129,-1.83675c-1.23018,-4.46143 -1.71368,-8.8965 0.97903,-13.07901c1.0173,-1.58014 1.37643,-1.6065 2.61299,-0.18079c2.36952,2.73194 4.03587,6.01319 6.68316,8.52942c1.54996,1.47315 3.07613,2.97128 4.61303,4.45814c0.57953,0.1246 0.86666,0.63106 1.27892,0.97445c0.27833,0.30623 0.59402,0.5763 0.93965,0.80386c0.46119,0.29721 0.69137,0.83044 1.15737,1.123c0.53961,0.42781 1.09645,0.83178 1.64985,1.24164c0.62181,0.5885 1.21012,1.21085 1.84141,1.79034c3.59599,3.4785 7.01854,7.10253 9.34459,11.59601c1.06906,2.06521 2.0898,4.16574 2.12926,6.5748c-0.0738,0.28709 -0.17426,0.55176 -0.52494,0.59297c-0.33062,-0.19771 -0.57514,-0.51215 -0.68533,-0.88128c-2.53369,-5.46548 -6.33393,-9.92866 -10.86564,-13.82951c-3.89664,-3.35417 -7.87625,-6.61246 -11.75082,-9.98791c-2.50283,-2.18048 -4.86128,-4.58549 -6.3816,-7.93194c-0.58214,1.27727 -0.77269,2.69842 -0.54756,4.08392c0.53228,3.44416 2.134,6.40257 4.12189,9.1816c2.34773,3.18913 5.05987,6.09316 8.08133,8.65307c0.17972,0.15661 0.37433,0.29736 0.54038,0.46876c0.23682,0.24469 0.4898,0.52682 0.3094,0.8788c-0.2262,0.44175 -0.65508,0.32949 -1.01222,0.20733c-1.43693,-0.51947 -2.81513,-1.18891 -4.11177,-1.99721c-3.192,-1.92211 -6.02014,-4.39193 -8.35456,-7.29604c-0.25539,-0.31463 -0.44557,-0.82357 -0.984,-0.67277c-0.46276,0.1296 -0.5848,0.59672 -0.72957,0.99802c-0.44481,1.23346 -0.05466,2.33599 0.53984,3.412c1.36708,2.47422 3.64401,4.00176 5.85864,5.56999c3.36162,2.38033 7.06517,4.14821 10.79665,5.85944c0.47781,0.21914 1.17892,0.26455 1.18591,1.04996c-0.17391,0.40321 -0.54018,0.46219 -0.91089,0.51589c-4.65329,-0.36696 -8.87874,-2.00795 -12.88806,-4.31196c-0.46719,-0.26849 -0.94962,-0.96326 -1.47441,-0.59767c-0.46883,0.32659 -0.18873,1.06899 -0.11291,1.62533c0.64377,4.72548 3.69007,7.33691 7.8989,8.88145c1.79826,0.63345 3.64864,1.10789 5.52984,1.41788c0.57047,0.05135 1.12505,0.21556 1.63151,0.48308c0.2856,0.18224 0.38197,0.41803 0.03491,0.65814c-1.27609,0.37647 -2.58121,0.11658 -3.8701,0.18655c-3.17338,-0.33293 -6.27495,-0.92987 -9.08771,-2.54962c-1.02888,-0.59251 -2.06406,-1.18354 -2.55887,-2.35806l-0.05688,-0.06986c-0.21249,-0.27759 -0.40358,-0.57092 -0.57162,-0.87746z" fill="#000000"/>
                <path d="M296.07153,204.64514c-0.38636,-0.48805 -0.92613,-0.24702 -1.40497,-0.29565c-5.89798,-0.27024 -9.48535,-3.75654 -11.7753,-8.76655c-2.76578,-6.05104 -2.72472,-12.18436 0.06081,-18.26767c0.47462,-0.93443 1.01165,-1.83582 1.60745,-2.69806c0.87528,-1.34053 2.01745,-2.48628 3.35524,-3.36574c0.29468,-0.17951 0.60736,-0.32764 0.93293,-0.44194c0.59748,-0.18613 1.14385,-0.50394 1.74473,-0.68476c0.57466,-0.18599 1.15887,-0.34109 1.75012,-0.46463c1.04355,0.24916 2.12712,0.04496 3.17101,0.28174c2.63178,0.33675 4.71521,1.71161 6.50666,3.55409c6.35822,6.53935 6.89917,18.8545 1.16391,25.95584c-1.49676,1.85321 -3.29958,3.30023 -5.61063,4.00306c-0.6341,0.19074 -1.17137,0.61652 -1.50195,1.19026z" fill="#000000"/>
                <path d="M288.57778,163.66593c1.77043,1.81514 3.32894,3.82551 4.64558,5.99245c-0.31261,0.27326 -0.69232,0.10837 -1.03847,0.15943c-0.6213,0.11453 -1.23016,0.28849 -1.81818,0.51948c-0.40489,0.09167 -0.73556,0.40271 -1.17307,0.40034c-0.92246,-0.2521 -1.2534,-1.11127 -1.75161,-1.77116c-1.51929,-2.01238 -3.33133,-3.74374 -5.13076,-5.49088c-7.19835,-6.71695 -16.19772,-11.1912 -25.89801,-12.8758c-0.79832,-0.14366 -1.59351,-0.29622 -2.38778,-0.46822c-1.58034,-0.31068 -2.70071,-1.72361 -2.64301,-3.33316c-0.03094,-1.46364 0.97258,-1.02112 1.7764,-0.9254c6.10257,0.29007 11.82328,2.05027 17.34621,4.5429c1.92223,0.80142 3.76056,1.79084 5.48817,2.95386c0.67307,0.00275 1.35714,-0.03186 1.86322,0.54305c0.33829,0.38538 0.73784,0.71232 1.18255,0.96765c1.37983,0.8623 2.6251,1.90718 3.92415,2.87961c1.29278,1.21578 2.80092,2.20153 3.89424,3.6306c0.84305,0.55458 1.80126,1.02342 1.7204,2.27525z" fill="#000000"/>
                <path d="M223.94404,160.76341c-0.67769,-0.07357 -0.6361,-0.93881 -1.22357,-1.11154c-0.25565,-0.33212 -0.43927,-0.73911 -0.89576,-0.86264c-0.46117,-0.27853 -0.8442,-0.66943 -1.11329,-1.13617c-0.4958,-2.31876 -1.08579,-4.61941 -1.17918,-7.0086c-0.10413,-2.6644 0.69779,-5.05516 2.04679,-7.31529c0.67552,-1.13174 1.36964,-0.98025 2.1178,-0.15103c1.26916,1.41954 2.44569,2.91926 3.52231,4.48985c0.72903,1.05279 1.43824,2.38541 2.49045,2.87647c1.14591,0.53476 2.24882,-0.83652 3.40291,-1.29549c2.11555,-0.84145 4.17289,-1.83003 6.43763,-2.23625c0.66008,-0.09312 0.67227,0.43927 0.64477,0.8039c-0.09431,1.25394 -0.12643,2.54615 -1.09167,3.53706c-0.35295,0.32074 -0.7733,0.55829 -1.23014,0.69519c-5.20936,1.88238 -9.95782,4.8532 -13.92905,8.71457z" fill="#000000"/>
                <path d="M238.75479,151.29346c0.90672,-1.30768 1.42219,-2.68809 0.79546,-4.28072c0.44901,-0.25879 0.56914,-0.66921 0.6814,-1.16169c0.83339,-3.65142 2.40314,-7.01628 4.1845,-10.28011c1.11454,-2.03164 3.3753,-3.15554 5.66781,-2.81765c0.66662,0.10248 0.95516,0.25405 0.78732,1.08526c-0.60443,3.24409 -0.58607,6.57356 0.05413,9.81079c0.24916,1.39611 0.72674,2.24294 2.23327,2.22388c-1.70325,0.09167 -1.64691,0.09587 -1.21696,1.73415c0.33136,1.26242 0.92968,2.10187 2.28419,2.25443c-0.22086,0.34053 -0.66895,0.60527 -0.36799,1.11715c0.20038,0.4609 0.42641,0.91022 0.67704,1.34584c0.54007,0.86624 1.02204,1.76799 1.61864,2.59897c0.4357,0.72662 0.93144,1.41551 1.48205,2.05944c0.34049,0.39381 0.61497,0.80978 0.46383,1.37002c-2.70279,5.19099 -6.68141,8.60498 -12.72779,9.1515c-0.89985,0.08132 -1.78381,0.30096 -2.70027,0.24672c-0.72468,-0.0429 -1.29912,-0.27655 -1.60046,-0.98446c-1.11467,-3.20142 -1.64836,-6.52025 -1.99469,-9.8769c-0.04436,-0.15219 -0.07577,-0.30787 -0.09389,-0.46536c-0.07235,-0.62704 -0.04106,-1.25692 -0.05222,-1.88526c-0.0157,-0.45206 0.0107,-0.90416 0.01146,-1.35566c0.02244,-0.63563 -0.0404,-1.2714 -0.18682,-1.89034z" fill="#010101"/>
                <path d="M288.57778,163.66593c-0.13564,-1.18446 -1.28724,-1.38572 -1.97254,-2.03809c1.29129,-7.26785 -0.17468,-14.05861 -3.56437,-20.51118c-0.36277,-0.83357 -1.01907,-1.50486 -1.84423,-1.88637c-0.50344,1.1678 -0.11364,2.37995 -0.20775,3.56379c0.00153,0.5395 0.00382,1.07739 -0.00382,1.61574c-0.30678,2.97096 -1.0544,5.87964 -2.21826,8.6303c-0.20829,0.4937 -0.29458,1.14244 -1.03629,1.19416c-0.38018,-0.68797 -1.24236,-0.40695 -1.73732,-0.86421c1.25015,-1.22804 1.48121,-2.92472 1.9539,-4.47636c1.09296,-3.47671 1.30638,-7.17025 0.62112,-10.74971c-0.22078,-1.13213 0.15187,-1.41329 1.17918,-1.41971c2.10142,-0.0131 3.70413,0.85447 4.72957,2.66295c3.98893,7.03492 5.6146,14.52374 4.24752,22.57364c-0.0953,0.56039 -0.09985,1.13629 -0.14672,1.70504z" fill="#020201"/>
                <path d="M292.04368,169.70089c0.39333,-0.01413 0.78663,-0.02828 1.17991,-0.04244c0.76276,0.09874 1.5699,-0.15989 2.28996,0.28346l-3.46784,0.05115c-0.0619,-0.04358 -0.08982,-0.1213 -0.06979,-0.19431c0.02238,-0.06524 0.04497,-0.09786 0.06776,-0.09786z" fill="#334c00"/>
                <path d="M257.90768,158.17173c0.07181,-0.48442 -0.37116,-0.72506 -0.52265,-1.1039c0.42303,-0.43396 0.95287,-0.36192 1.47197,-0.29584c4.82247,0.61394 9.57641,1.51715 14.10376,3.36295c3.68652,1.34572 6.61957,3.84974 9.57415,6.30513c0.72689,0.60413 1.44664,1.22494 2.16284,1.84492c1.2,0.96723 1.78488,2.60291 3.39638,3.12453c-1.08782,1.01803 -2.24935,1.96142 -3.1777,3.1408c-1.98728,2.33247 -3.09829,5.0848 -3.89668,8.00173c-0.17876,0.65317 -0.02903,1.59019 -1.07407,1.74148c-0.47441,-0.64553 -0.5063,-1.42028 -0.62594,-2.16696c-0.69313,-4.32606 -2.26509,-8.24745 -5.31872,-11.47442c-3.03503,-3.20722 -6.75326,-4.67594 -11.17179,-4.31368c-5.24126,0.07135 -8.82159,2.90825 -11.21041,7.22144c-4.95337,8.94375 -4.98018,18.05526 -0.08613,27.03629c2.39206,4.38965 6.00264,7.30467 11.28157,7.35081c3.05466,0.02674 5.61723,-1.29924 7.75704,-3.45107c2.94623,-2.02102 5.30151,-4.78973 6.82404,-8.02186c0.71631,-1.54964 1.27297,-3.16818 1.66135,-4.8306c0.12101,-0.50607 0.17441,-1.03709 0.63243,-1.38824c0.4741,-0.06448 0.62533,0.29114 0.80336,0.61356c0.59003,2.69324 1.30737,5.33694 2.86257,7.67461c1.70302,2.55986 3.83297,4.5599 6.879,5.4138c0.4851,0.13598 1.06077,0.24725 0.99966,0.97456c-3.74088,5.83866 -9.06934,9.80945 -15.1818,12.83298c-4.07028,1.96423 -8.37593,3.3977 -12.81132,4.26525c-5.15161,-4.96563 -11.23554,-8.19023 -18.28967,-9.35135c-8.04688,-1.32449 -15.86003,-0.73167 -23.03319,3.6599c-0.42371,0.31225 -0.92387,0.50432 -1.44767,0.55592c-8.16747,-4.36868 -12.60395,-11.15777 -13.18856,-20.415c-0.23579,-3.73347 0.28804,-7.39879 1.17265,-11.02041c0.11219,-0.45917 0.18529,-0.92789 0.27647,-1.39213c3.17182,3.09714 7.22079,3.99542 11.4067,4.55081c1.72361,0.18874 3.46287,0.1853 5.18572,-0.01024c0.28621,-0.02601 0.57513,-0.0215 0.86009,-0.02292c0.07743,-0.00031 0.15859,-0.00019 0.2398,0c-0.02977,-0.00542 -0.06012,-0.0068 -0.09026,-0.00413c-0.31551,0.00111 -0.61933,-0.00244 -0.9238,0.00921c-0.31822,-0.03545 -0.64695,0.29794 -0.95543,-0.02907c-1.49733,-0.76043 -3.1879,-0.70493 -4.77082,-1.11849c-2.69328,-0.70371 -5.25776,-1.64939 -7.41239,-3.45871c-2.49168,-2.0924 -3.58984,-4.84126 -3.57804,-8.05471c0.0013,-0.34893 -0.16043,-0.83751 0.22609,-1.0466c0.41807,-0.2262 0.65745,0.25302 0.95569,0.44649c4.09613,2.70461 8.77104,4.40775 13.647,4.97182c0.43407,0.28037 0.89813,-0.01222 1.34198,0.06898c0.0761,0.03573 0.15461,0.06608 0.23495,0.09083c0.12723,0.02357 0.15279,0.01008 0.0539,-0.00985c-0.27217,-0.09999 -0.51827,-0.26011 -0.71998,-0.46841c-4.11181,-1.98075 -8.28928,-3.84221 -12.05861,-6.45834c-2.11914,-1.47078 -4.20635,-2.99236 -5.67052,-5.17927c-1.00367,-1.49909 -1.51715,-3.08786 -0.65882,-4.84684c0.60733,-1.24473 0.99057,-1.26012 1.86051,-0.15504c3.35554,4.26261 7.46021,7.54856 12.53688,9.55571c0.17324,0.07509 0.35241,0.13565 0.53568,0.18105c0.07597,0.01616 0.17005,-0.05267 0.45573,-0.15313c-1.17918,-1.06853 -2.30864,-2.04737 -3.38809,-3.07823c-4.02896,-3.84813 -7.65207,-7.99172 -9.48775,-13.39299c-0.8309,-2.44489 -1.00264,-4.89951 -0.03591,-7.43294c0.1838,0.11459 0.34779,0.15661 0.39538,0.25516c2.02651,4.19279 5.47312,7.12377 8.89818,10.08554c4.14901,3.58793 8.5447,6.89397 12.41132,10.80494c3.48878,3.52877 6.48588,7.40043 8.30406,12.07993c0.24796,0.23022 0.41293,0.53589 0.46929,0.86952c0.02021,0.40707 0.2521,0.78992 0.20065,1.00791c-0.05082,-0.44626 -0.14232,-0.88694 -0.27338,-1.31654c-0.15279,-0.38319 0.07227,-0.8076 -0.12987,-1.18526c-0.54668,-3.67334 -2.28037,-6.82453 -4.34867,-9.82106c-2.06734,-2.99492 -4.66078,-5.52866 -7.19031,-8.11689c2.98642,-1.85723 6.13698,-3.43648 9.41205,-4.71788c1.20791,-0.44767 2.21131,-1.01154 2.70149,-2.25718c0.44202,3.39972 1.10708,6.7667 1.99087,10.07916c1.05214,3.03217 2.65272,3.99962 5.69348,3.04958c4.868,-1.5209 8.38561,-4.60417 10.11843,-9.51006c0.31011,-0.69504 0.55574,-1.41708 0.73381,-2.15703z" fill="#98cb33"/>
                <path d="M220.47008,216.89496c4.65791,-3.4005 9.96365,-4.89561 15.63791,-5.15043c9.88577,-0.44397 18.72424,2.27617 26.18174,8.96254c0.39992,0.35856 1.00214,0.62051 0.9497,1.32365c-11.97863,2.1264 -23.8168,1.57086 -35.48034,-1.94886c-2.5642,-0.72335 -5.01682,-1.79569 -7.28901,-3.1869z" fill="#fefefe"/>
                <path d="M280.02017,184.28434c0.59305,-0.7932 0.55768,-1.78812 0.86028,-2.67411c0.8916,-2.61112 1.81769,-5.20536 4.03583,-7.05944c-1.98117,3.14714 -3.3824,6.53962 -3.55997,10.26632c-0.31868,6.6939 1.42338,12.64364 6.9112,17.00312c1.6026,1.27307 3.52178,1.86402 5.52354,2.18912c0.31665,0.05145 0.6864,-0.03862 0.87525,0.33995c-1.08988,0.51474 -2.36998,-0.08957 -3.43293,0.58293c-0.16448,-0.16448 -0.30325,-0.42758 -0.49759,-0.47857c-6.07904,-1.59488 -8.68118,-6.18794 -10.18397,-11.74654c-0.18162,-0.59121 -0.27192,-1.20668 -0.26776,-1.82514c-0.17828,-0.61517 -0.42665,-1.20781 -0.74022,-1.76627c-0.19641,-0.81765 0.11131,-1.59576 0.18361,-2.39244c0.20257,-0.59877 0.23178,-1.2426 0.08426,-1.85726c-0.02514,-0.21581 0.05198,-0.43097 0.20848,-0.58167z" fill="#659800"/>
                <path d="M206.95639,181.11882c0.34516,0.28713 0.55267,0.70694 0.57116,1.15554c-0.41665,-0.2733 -0.82479,-0.55088 -0.57116,-1.15554z" fill="#2a2a2a"/>
                <path d="M208.10223,183.12001c0.35964,0.1389 0.58995,0.49245 0.57166,0.87754c-0.24725,-0.25562 -0.86963,-0.26677 -0.57166,-0.87754z" fill="#1e1e1e"/>
                <path d="M238.75479,151.29346c1.18541,0.31654 0.34794,1.21608 0.52544,1.82311c-0.49458,0.89802 -1.50623,0.94145 -2.28545,1.35932c-1.16627,0.65439 -2.39833,1.18392 -3.67571,1.5798c0.96673,-0.32196 2.56685,-0.79924 4.16662,-1.27922c0.57987,-0.17395 1.14305,-0.52594 1.79145,-0.26906c0.01999,0.66224 0.03998,1.32447 0.05997,1.98671c-1.63973,1.11467 -3.6437,1.25206 -5.42189,2.0199c-2.08392,0.89985 -4.21395,1.67964 -6.16964,2.86097c-0.67086,0.40516 -1.35535,0.91929 -2.24171,0.64935l-1.55982,-1.26085c-0.36341,-0.72727 0.35707,-0.88999 0.68228,-1.17808c4.13206,-3.64735 8.9293,-6.46284 14.12848,-8.29195z" fill="#bcea61"/>
                <path d="M225.50386,162.02426c3.00638,-1.41077 5.87652,-3.11158 9.05704,-4.15279c1.56162,-0.55881 3.15684,-1.01885 4.77621,-1.37739c0.06698,0.05147 0.08189,0.1464 0.03392,0.21593c0.13973,1.25439 -0.47823,1.79741 -1.6463,2.2196c-3.03318,1.11693 -5.95735,2.51009 -8.73569,4.16192c-0.50565,0.365 -1.10831,0.57161 -1.73155,0.59362z" fill="#a8df39"/>
                <path d="M224.45359,188.56108l0.79973,-0.27582c0.17808,0.14985 0.47059,0.22892 0.34885,0.56413c-1.82086,-0.09225 -3.66276,0.31173 -5.46464,-0.23125z" fill="#9cbf54"/>
                <path d="M224.43178,179.98192l1.12682,0.30126c0.05775,0.56707 -0.28839,0.39908 -0.58491,0.32139c-0.49213,-0.06345 -1.02464,0.06585 -1.45268,-0.3042c0.31329,-0.07834 0.69748,0.04584 0.91077,-0.31845z" fill="#161911"/>
                <path d="M221.82471,158.78911c0.70531,-0.13484 0.79832,0.36604 0.89569,0.86261c-0.38374,-0.18347 -0.69791,-0.48604 -0.89569,-0.86261z" fill="#1c1c1c"/>
                <path d="M238.76442,183.12608l-0.23442,-0.87853c0.08877,-0.20802 0.17758,-0.41609 0.26643,-0.62422c0.23439,0.34538 0.33793,0.76302 0.29202,1.17789c0.10019,0.31604 -0.0393,0.3929 -0.32403,0.32487z" fill="#161911"/>
                <path d="M283.96945,183.95607c0.23709,-3.26148 1.54191,-6.35405 3.71276,-8.79963c3.52781,-3.95386 8.60643,-4.1392 12.31014,-0.35275c4.26727,4.36257 5.26697,9.7617 4.53125,15.61118c-0.08907,1.04768 -0.3515,2.07329 -0.77659,3.03499c-1.98625,2.81036 -4.97957,3.64099 -8.14168,4.08274c-2.8793,0.40225 -5.09229,-0.8505 -6.84734,-3.01376c-1.96528,-2.42258 -3.33591,-5.19646 -4.53213,-8.05448c-0.37139,-0.78173 -0.46195,-1.66759 -0.25642,-2.50829z" fill="#fefefe"/>
                <path d="M283.96945,183.95607c0.30176,2.82934 1.89252,5.12877 3.16609,7.54543c0.5801,1.08863 1.29679,2.09875 2.1327,3.00589c2.75379,2.99955 5.66009,3.51146 9.82293,1.86352c1.72075,-0.67441 3.29996,-1.66516 4.65593,-2.92101c-0.7135,2.84223 -2.45353,5.31989 -4.88488,6.9557c-2.82411,1.91368 -6.12251,1.85203 -8.95116,-0.18503c-4.04412,-2.91238 -5.67293,-7.14482 -6.1439,-11.90529c-0.1424,-1.43919 -0.34309,-2.92991 0.20229,-4.35921z" fill="#cfd1d2"/>
                <path d="M288.09413,171.40991c-0.70611,0.21215 -1.21899,-0.05073 -1.65722,-0.61115c-0.59695,-0.76345 -1.233,-1.4963 -1.85229,-2.24217c-0.97785,-1.1864 -1.43652,-2.62877 -1.97533,-4.0298c-0.14836,-0.38579 -0.35928,-0.79068 -0.00982,-1.18927c2.52903,2.08992 4.52056,4.66548 6.52892,7.22583c0.22032,0.35294 -0.10814,0.40248 -0.29362,0.53094z" fill="#b5e15d"/>
                <path d="M292.04368,169.70089l0.00199,0.29194c-0.40363,0.40302 -1.00355,0.24958 -1.45596,0.5141c-0.10149,-0.09687 -0.27804,-0.11551 -0.30359,-0.29144c0.51658,-0.35333 1.132,-0.53352 1.75757,-0.51459z" fill="#2e4600"/>
                <path d="M290.28611,170.21549l0.30378,0.29164c-0.62055,0.08896 -1.08793,0.63545 -1.75478,0.5869c0.09758,-0.17685 0.19537,-0.35383 0.29335,-0.53094z" fill="#3f5e00"/>
                <path d="M282.59947,163.33725c0.66175,1.7395 1.32348,3.47911 1.98518,5.21884c-2.2589,-1.80638 -4.48847,-3.65142 -6.78733,-5.40566c-1.43748,-1.07312 -3.00494,-1.96008 -4.66506,-2.63977c-4.80791,-2.25707 -9.76621,-4.04718 -15.06114,-4.746c-0.76008,-0.04652 -1.49634,-0.28301 -2.14133,-0.68782c-0.65513,-0.79278 -1.19763,-1.67224 -1.61215,-2.61345c0.46769,-0.44484 1.0607,-0.40913 1.61666,-0.3445c2.59516,0.26447 5.1597,0.77234 7.65979,1.51689c0.16593,0.05092 0.32796,0.11377 0.48484,0.18804c0.12043,0.05167 0.24745,0.08638 0.37743,0.10313c-0.10516,-0.0618 -0.23373,-0.05474 -0.34679,-0.11803c-2.7877,-0.92781 -5.6544,-1.50164 -8.51315,-2.11097c-0.68205,-0.14538 -1.4238,-0.14133 -1.98453,-0.66184c-0.78193,-0.9073 -0.53919,-1.27884 0.61402,-1.17441c9.97258,1.30852 19.3418,5.51523 26.94603,12.09857c0.50172,0.42869 0.9529,0.91658 1.42754,1.37697z" fill="#bcea61"/>
                <path d="M280.89943,138.67587c1.14572,0.10619 1.74152,0.94114 2.22342,1.81253c3.50627,6.34008 5.04966,13.07905 4.0319,20.32165c-0.05126,0.3649 0.02193,0.80569 -0.54935,0.81788c-1.04278,-1.4136 -2.57491,-2.31513 -3.75283,-3.58725c-0.18228,-0.3938 -0.22376,-0.83825 -0.11749,-1.25898c0.84198,-5.02762 -0.37273,-9.85551 -1.42475,-14.69765c-0.11077,-0.51028 -0.25768,-1.01524 -0.38365,-1.52365c0.0429,-0.62873 -0.43491,-1.25046 -0.02723,-1.88453z" fill="#669800"/>
                <path d="M281.17265,140.43859c1.17972,3.08003 1.53274,6.32957 2.01433,9.55964c0.43852,2.67551 0.32472,5.41247 -0.33442,8.04233c-1.33234,-1.00219 -2.66468,-2.00446 -3.99703,-3.0068c-0.18422,-0.66983 0.21173,-1.19328 0.4662,-1.739c1.31555,-2.74656 1.76833,-5.82717 1.2987,-8.83611l0.03472,-1.73591c0.15122,-0.58953 0.03587,-1.19064 0.07804,-1.78484c0.01933,-0.2754 0.01799,-0.57498 0.43946,-0.49931z" fill="#98cb33"/>
                <path d="M280.62021,144.45869c1.09649,2.22365 0.46746,4.45501 -0.05474,6.65012c-0.38345,1.38195 -0.95903,2.70321 -1.7099,3.9251c-0.45254,-0.136 -0.84785,-0.41693 -1.1251,-0.79958c1.64943,-3.05581 2.40547,-6.37556 2.88973,-9.77564z" fill="#f9f0d9"/>
                <path d="M223.40263,155.30798c-0.96505,-2.51623 -1.01581,-5.29146 -0.14343,-7.8413c0.84897,1.79614 1.95198,3.46077 3.27514,4.94271c0.36379,0.38782 0.03117,0.56669 -0.24179,0.76685c-0.91417,0.67028 -1.82487,1.34534 -2.88992,2.13174z" fill="#97c934"/>
                <path d="M251.04201,163.34718c-2.15352,1.72582 -4.7272,2.07628 -7.35597,2.25512c-0.67899,0.04618 -0.87365,-0.36371 -1.02991,-0.92544c-2.31826,-8.3337 -2.30596,-16.53173 1.40371,-24.51615c0.54118,-1.16501 1.09358,-2.32831 1.71738,-3.44978c0.53384,-0.95974 1.16318,-1.87548 2.40642,-2.02426c0.49045,0.6673 0.03915,1.28255 -0.13071,1.89595c-1.35344,4.88736 -2.47449,9.80846 -2.31093,14.93001c0.07359,2.48587 0.59021,4.93866 1.52556,7.24302c0.77869,1.92025 2.24359,3.28507 3.77445,4.59153z" fill="#669800"/>
                <path d="M251.04201,163.34718c-1.58816,-0.24691 -2.35814,-1.533 -3.13981,-2.66788c-1.80783,-2.62491 -2.39802,-5.66899 -2.54278,-8.78435c-0.25027,-5.38645 0.91727,-10.57244 2.40642,-15.70136c0.14515,-0.50038 0.27884,-1.00459 0.41761,-1.50688c0.53579,-0.3285 0.66417,-0.05195 0.64057,0.43587c-0.04767,0.98461 -0.09973,1.96902 -0.14996,2.95348c-0.3272,0.64504 0.18243,1.34962 -0.14179,1.99683c-0.79313,4.59214 -0.31295,8.94062 2.22372,12.98516c1.31475,2.0963 2.58595,4.20169 4.41318,5.90471c-0.9487,1.86337 -2.41765,3.23713 -4.12716,4.38442z" fill="#98cb33"/>
                <path d="M257.90768,158.17173c-0.01791,2.3382 -0.97273,4.37583 -2.34114,6.14558c-2.35168,3.04137 -5.34271,5.25016 -9.18431,6.107c-2.811,0.62697 -4.923,-0.91043 -5.02033,-3.63526c0.29614,0.5615 0.8089,0.5322 1.34454,0.5406c6.39955,0.1005 11.25785,-2.5568 14.52806,-8.0787c0.2162,-0.36459 0.44851,-0.71967 0.67319,-1.07922z" fill="#669800"/>
                <path d="M255.16925,158.96276c-0.64863,0.13457 -0.94278,-0.36574 -1.27059,-0.74889c-2.75329,-3.21811 -4.91754,-6.81525 -5.87197,-10.93707c-0.63286,-2.47763 -0.47347,-5.09129 0.45577,-7.47365c0.22051,0.14003 0.09492,0.42277 0.24416,0.59206c0.51643,6.21433 2.8887,11.72316 6.43649,16.76786c0.4741,0.67429 0.75061,1.19412 0.00615,1.7997z" fill="#fdf3df"/>
                <path d="M255.9298,155.07685c5.26633,0.52561 10.40615,1.93645 15.20281,4.17308c0.70871,0.32788 1.55413,0.49374 1.9997,1.26085c-3.94577,-1.34546 -7.93592,-2.51673 -12.09001,-3.02926c-1.21757,-0.15023 -2.43809,-0.27624 -3.65726,-0.41337c-0.62303,-0.55103 -1.11946,-1.23033 -1.45524,-1.99129z" fill="#a8df39"/>
                <path d="M253.61211,151.03601c3.7234,0.45698 7.38202,1.33995 10.90399,2.63155c0.01494,0.53759 -0.28995,0.38885 -0.5806,0.27055c-3.19065,-0.59106 -6.33935,-1.45596 -9.6177,-1.47479z" fill="#fbfdf8"/>
                <path d="M239.27718,154.50733c-2.22691,0.90591 -4.57063,1.49269 -6.9617,1.74294c2.32155,-1.04474 4.64312,-2.08942 6.96472,-3.13404c-0.00099,0.46387 -0.002,0.92757 -0.00302,1.3911z" fill="#fbfdf7"/>
                <path d="M248.72669,140.39535c-0.08128,-0.19728 -0.16261,-0.39463 -0.24397,-0.59206c0.0153,-0.44877 -0.06105,-0.89594 -0.22437,-1.31421c-0.13694,-0.33656 0.056,-0.49591 0.41589,-0.4123c0.01742,0.77237 0.0349,1.54523 0.05244,2.31857z" fill="#bcd871"/>
                <path d="M281.17261,140.43859c-0.68572,0.64519 0.05237,1.6131 -0.51772,2.28419c-0.03549,-1.1335 -0.08403,-2.26673 -0.0961,-3.40035c-0.0026,-0.24064 -0.29102,-0.71047 0.3406,-0.64656c0.09109,0.58752 0.18216,1.1751 0.27322,1.76272z" fill="#8fc12b"/>
                <path d="M280.04423,186.56165l-0.2285,2.5921c0.23556,0.35818 0.19694,0.83074 -0.09366,1.14591c-0.79947,4.1162 -2.29412,7.90681 -5.0929,11.11445c-1.10546,1.267 -2.46582,2.21288 -3.77231,3.23266c-3.78484,3.08133 -10.85135,2.30084 -15.06438,-1.78682c-4.13576,-4.01265 -6.18794,-8.94906 -6.53209,-14.64116c-0.28931,-4.78331 0.239,-9.42878 2.56662,-13.72042c1.21009,-2.23121 2.66303,-4.2772 4.68011,-5.88377c1.80567,-1.49899 4.02599,-2.4109 6.36399,-2.61375c6.96876,-0.54824 11.41128,3.07304 14.52848,8.83939c1.59034,2.94191 2.22812,6.16242 2.62063,9.44413c0.00216,0.19338 0.00433,0.38675 0.00649,0.5801c0.18169,0.55022 0.18781,1.14332 0.01753,1.69718z" fill="#000000"/>
                <path d="M262.8711,166.00085c-8.18309,2.69672 -13.05197,9.56105 -13.2627,18.29151c-0.13102,5.42331 0.60733,10.54532 3.72602,15.12477c1.66922,2.45146 3.75596,4.45497 6.49126,5.657c3.21253,1.47658 6.91663,1.44132 10.10047,-0.09614c0.29817,-0.13671 0.61983,-0.22215 0.93071,-0.3314c-3.63308,4.31517 -10.44543,4.92621 -15.08623,1.3751c-4.76445,-3.64584 -6.86281,-8.76029 -7.80861,-14.43172c-0.82802,-4.75828 -0.35713,-9.6518 1.36303,-14.16488c1.49954,-3.93591 3.58671,-7.47656 7.32564,-9.7303c1.90073,-1.14588 3.94416,-1.87464 6.22041,-1.69393z" fill="#669800"/>
                <path d="M245.63013,193.73049c0.07833,1.66066 -0.30458,3.31059 -1.1063,4.767c-1.10126,1.98835 -3.00677,2.04962 -4.04473,0.05554c-1.63942,-3.14951 -1.60871,-6.38057 -0.04343,-9.57095c0.41532,-0.84653 1.08098,-1.52957 2.08041,-1.50436c0.98835,0.0249 1.61624,0.72418 2.0479,1.56681c0.76763,1.43869 1.13578,3.05677 1.06616,4.68595z" fill="#669800"/>
                <path d="M226.38732,188.32273c0.47893,-0.0911 0.97447,-0.02561 1.41329,0.18678c-0.43163,0.5293 -0.94286,0.31482 -1.39527,0.32727c-0.13411,-0.14257 -0.14182,-0.36244 -0.01803,-0.51406z" fill="#8cae48"/>
                <path d="M279.72208,190.29951c0.03114,-0.38182 0.06233,-0.76369 0.09354,-1.14561c0.85944,0.38537 0.33934,1.14485 0.46872,1.72823c-0.1875,-0.1943 -0.37492,-0.3885 -0.56226,-0.58262z" fill="#75a21c"/>
                <path d="M238.76442,183.12608c0.10797,-0.10812 0.21597,-0.21635 0.32399,-0.32468c0.31482,0.59137 0.3652,1.20512 0.10695,2.1175z" fill="#444d32"/>
                <path d="M226.38732,188.32273c0.00614,0.17153 0.01224,0.34297 0.0183,0.51432c-0.26791,0.00405 -0.53574,0.00823 -0.80348,0.01253c-0.11612,-0.18816 -0.23233,-0.37624 -0.34863,-0.56425z" fill="#4a5535"/>
                <path d="M224.97379,180.60458c0.21253,-0.07521 0.49771,-0.01826 0.58499,-0.32139c0.32051,0.01089 0.8327,0.14374 0.62968,0.42238c-0.25573,0.35111 -0.82021,0.18587 -1.21467,-0.10099z" fill="#6b7e45"/>
                <path d="M280.04423,186.56165c-0.00588,-0.56573 -0.01175,-1.13146 -0.01761,-1.69721c0.40241,0.49187 0.40973,1.1971 0.01761,1.69721z" fill="#76a910"/>
                <path d="M301.03769,179.43616c-1.43239,-0.17513 -2.17953,0.44721 -2.35623,1.65573c-0.15,1.02601 -0.03018,2.09179 1.04496,2.5772c1.04366,0.47124 1.7861,-0.16043 2.32361,-1.10879c0.77487,2.37407 -0.26841,5.85471 -2.11521,7.27274c-1.3369,1.02647 -2.55772,1.0026 -3.88236,-0.07586c-3.02655,-2.4641 -3.05421,-9.12656 -0.04817,-11.61575c1.62621,-1.34614 3.63083,-0.89859 5.03339,1.29473z" fill="#000000"/>
                <path d="M263.93531,153.93811l0.5806,-0.27063c0.41303,0.06096 0.77089,0.31837 0.96005,0.69057c-0.63973,-0.08904 -1.13044,-0.07888 -1.54064,-0.41994z" fill="#f0fadc"/>
                <path d="M252.7461,181.96692c0.68988,-4.49458 2.55207,-8.37308 6.16853,-11.23153c3.66467,-2.89653 8.2279,-2.89916 11.8041,0.11811c5.48492,4.62762 6.86464,10.84161 6.35081,17.65618c-0.11669,2.00034 -0.58745,3.9641 -1.39038,5.79993c-1.12922,1.93763 -3.20501,2.49809 -5.04363,3.31658c-2.11131,0.92885 -4.42955,1.28684 -6.7227,1.03816c-2.32949,-0.23507 -4.0683,-1.58518 -5.49202,-3.31746c-2.64194,-3.2149 -4.24542,-6.99596 -5.69267,-10.84677c-0.31222,-0.83075 -0.06879,-1.68873 0.01795,-2.5332z" fill="#fefefe"/>
                <path d="M252.7461,181.96692c0.47674,4.59512 2.69405,8.48385 5.229,12.15571c3.41081,4.9405 6.97354,5.07831 12.6763,3.10184c1.85266,-0.62852 3.56175,-1.61936 5.02774,-2.91482c-1.01246,3.214 -3.115,5.97382 -5.94485,7.80326c-3.54042,2.3005 -7.83225,1.97651 -11.16503,-0.84767c-4.33538,-3.67373 -5.9874,-8.60582 -6.31281,-14.08566c-0.10374,-1.74786 -0.14633,-3.52013 0.48965,-5.21265z" fill="#cfd1d2"/>
                <path d="M272.47925,180.72818c-1.6945,-0.23235 -2.62273,0.43224 -2.82101,1.88209c-0.17345,1.26815 -0.08953,2.60375 1.25096,3.21933c1.20928,0.55531 2.04198,-0.21547 2.69722,-1.54828c0.25424,2.95581 0.2136,5.5141 -1.49183,7.76598c-1.96165,2.59026 -4.50658,2.60631 -6.48813,0.01371c-2.24836,-2.94164 -2.35787,-8.5837 -0.22628,-11.65632c2.05757,-2.96578 4.84997,-2.94236 7.07908,0.32349z" fill="#000000"/>
            </g>
        </g>
    </g>
</svg>
