<?xml version="1.0" encoding="utf-8"?>
<!-- Generator: Adobe Illustrator 21.0.0, SVG Export Plug-In . SVG Version: 6.00 Build 0)  -->
<svg version="1.1" id="图层_1" xmlns="http://www.w3.org/2000/svg" xmlns:xlink="http://www.w3.org/1999/xlink" x="0px" y="0px"
	 viewBox="0 0 17.5 13.1" style="enable-background:new 0 0 17.5 13.1;" xml:space="preserve">
<style type="text/css">
	.st0{fill:#FFFFFF;}
</style>
<path class="st0" d="M14.3,8.6c-0.1,0-0.1,0-0.2,0c-0.5-0.1-0.8-0.6-0.7-1c0.1-0.3,0.1-0.7,0.1-1c0-2.6-2.2-4.8-4.8-4.8
	C6.8,1.7,5,3,4.2,4.8C4.1,5.3,3.6,5.5,3.1,5.3C2.7,5.2,2.4,4.7,2.6,4.2C3.6,1.7,6,0,8.7,0c3.6,0,6.5,2.9,6.5,6.5
	c0,0.4,0,0.9-0.1,1.3C15.1,8.3,14.7,8.6,14.3,8.6z"/>
<path class="st0" d="M11.6,7.2c-0.4,0-0.8-0.3-0.9-0.8C10.6,5.6,10,4.8,9.2,4.6C8.7,4.5,8.5,4,8.6,3.5C8.7,3,9.2,2.8,9.7,2.9
	c1.5,0.4,2.6,1.8,2.8,3.3C12.5,6.7,12.2,7.2,11.6,7.2C11.6,7.2,11.6,7.2,11.6,7.2z M8.7,13.1c-3.2,0-6-2.4-6.5-5.6
	C2.2,7,2.5,6.6,3,6.5c0.5-0.1,0.9,0.3,1,0.7c0.3,2.3,2.4,4.1,4.8,4.1c1.4,0,2.7-0.6,3.6-1.7c0.3-0.4,0.9-0.4,1.2-0.1
	c0.4,0.3,0.4,0.9,0.1,1.2C12.4,12.3,10.6,13.1,8.7,13.1z"/>
<path class="st0" d="M13.1,11c-1.6,0-3.6-0.3-5.4-0.9C3.4,8.9-0.6,6.4,0.1,4c0.2-0.7,1-1.7,3.3-1.9c0.3,0,0.5,0,0.8,0
	C4.6,2.1,5,2.5,5,3c0,0.5-0.4,0.9-0.9,0.9c-0.2,0-0.5,0-0.7,0C2.3,4,1.8,4.3,1.8,4.5C1.6,5.1,3.6,7.1,8.2,8.4s7.4,0.7,7.5,0.1
	c0.1-0.2-0.3-0.9-1.6-1.8c-0.4-0.3-0.5-0.8-0.2-1.2c0.3-0.4,0.8-0.5,1.2-0.2c2.4,1.6,2.6,2.9,2.3,3.8C17,10.4,15.3,11,13.1,11z"/>
</svg>
