<?xml version="1.0" standalone="no"?><!DOCTYPE svg PUBLIC "-//W3C//DTD SVG 1.1//EN" "http://www.w3.org/Graphics/SVG/1.1/DTD/svg11.dtd"><svg t="1718857831321" class="icon" viewBox="0 0 1024 1024" version="1.1" xmlns="http://www.w3.org/2000/svg" p-id="61043" xmlns:xlink="http://www.w3.org/1999/xlink" width="20" height="20"><path d="M625.984 42.666667a128 128 0 0 1 90.517333 37.482666l163.349334 163.349334A128 128 0 0 1 917.333333 334.016V853.333333a128 128 0 0 1-128 128H234.666667a128 128 0 0 1-128-128V170.666667a128 128 0 0 1 128-128zM618.666667 128H234.666667a42.666667 42.666667 0 0 0-42.666667 42.666667v682.666666a42.666667 42.666667 0 0 0 42.666667 42.666667h554.666666a42.666667 42.666667 0 0 0 42.666667-42.666667V341.333333h-170.666667a42.666667 42.666667 0 0 1-42.56-39.466666L618.666667 298.666667V128z m64 554.666667a42.666667 42.666667 0 0 1 3.2 85.226666L682.666667 768H341.333333a42.666667 42.666667 0 0 1-3.2-85.226667L341.333333 682.666667h341.333334z m0-213.333334a42.666667 42.666667 0 0 1 3.2 85.226667L682.666667 554.666667H341.333333a42.666667 42.666667 0 0 1-3.2-85.226667L341.333333 469.333333h341.333334zM469.333333 256a42.666667 42.666667 0 0 1 3.2 85.226667L469.333333 341.333333h-128a42.666667 42.666667 0 0 1-3.2-85.226666L341.333333 256h128z m234.666667-67.669333V256h67.669333L704 188.330667z" fill="#ffffff" p-id="61044"></path></svg>