<svg xmlns="http://www.w3.org/2000/svg" viewBox="0 0 1119.74 201.03">
    <g id="图层_2" data-name="图层 2">
        <g id="画板_1" data-name="画板 1" style="isolation:isolate">
            <g id="OpenBlock">
                <g id="penBlock_图像" data-name="penBlock 图像">
                    <g id="圆角矩形_7" data-name="圆角矩形 7">
                        <rect y="14.54" width="170.88" height="152.4" rx="36" style="fill:#fff"/>
                    </g>
                    <g id="芯片主体">
                        <rect x="46.21" y="41.07" width="77.5" height="99.82" rx="7.19" style="fill:#ffab19"/>
                        <path d="M115.9,48.88v84.19H54V48.88H115.9m.62-15.62H53.4a15,15,0,0,0-15,15V133.7a15,15,0,0,0,15,15h63.12a15,15,0,0,0,15-15V48.26a15,15,0,0,0-15-15Z" style="fill:#ffab19"/>
                    </g>
                    <g id="芯片圆圈">
                        <path d="M72.06,79.61a9.2,9.2,0,1,1,9.19-9.2A9.21,9.21,0,0,1,72.06,79.61Z" style="fill:#fff"/>
                        <path d="M72.06,69a1.38,1.38,0,1,1-1.39,1.38A1.38,1.38,0,0,1,72.06,69m0-15.62a17,17,0,1,0,17,17,17,17,0,0,0-17-17Z" style="fill:#fff"/>
                    </g>
                    <g id="圆角矩形_6" data-name="圆角矩形 6">
                        <path d="M39.73,53.11H23.23a6.37,6.37,0,1,0,0,12.74h16.5a6.37,6.37,0,1,0,0-12.74Z" style="fill:#ffab19"/>
                        <path d="M39.73,53.11H23.23a6.37,6.37,0,1,0,0,12.74h16.5a6.37,6.37,0,1,0,0-12.74Z" style="fill:#ffab19"/>
                    </g>
                    <g id="圆角矩形_6_拷贝" data-name="圆角矩形 6 拷贝">
                        <path d="M39.73,95.11H23.23a6.37,6.37,0,1,0,0,12.74h16.5a6.37,6.37,0,1,0,0-12.74Z" style="fill:#ffab19"/>
                        <path d="M39.73,95.11H23.23a6.37,6.37,0,1,0,0,12.74h16.5a6.37,6.37,0,1,0,0-12.74Z" style="fill:#ffab19"/>
                    </g>
                    <g id="圆角矩形_6_拷贝_2" data-name="圆角矩形 6 拷贝 2">
                        <rect x="16.85" y="74.1" width="29.25" height="12.75" rx="6.37" style="fill:#ffab19"/>
                        <path d="M39.73,74.1H23.23a6.38,6.38,0,0,0-6.38,6.38h0a6.38,6.38,0,0,0,6.38,6.37h16.5a6.37,6.37,0,0,0,6.37-6.37h0a6.38,6.38,0,0,0-6.37-6.38Z" style="fill:#ffab19"/>
                    </g>
                    <g id="圆角矩形_6_拷贝_2-2" data-name="圆角矩形 6 拷贝 2">
                        <rect x="16.85" y="116.1" width="29.25" height="12.75" rx="6.37" style="fill:#ffab19"/>
                        <path d="M39.73,116.1H23.23a6.38,6.38,0,0,0-6.38,6.38h0a6.38,6.38,0,0,0,6.38,6.37h16.5a6.37,6.37,0,0,0,6.37-6.37h0a6.38,6.38,0,0,0-6.37-6.38Z" style="fill:#ffab19"/>
                    </g>
                    <g id="圆角矩形_6-2" data-name="圆角矩形 6">
                        <path d="M145.17,53.11h-16.5a6.37,6.37,0,1,0,0,12.74h16.5a6.37,6.37,0,1,0,0-12.74Z" style="fill:#ffab19"/>
                        <path d="M145.17,53.11h-16.5a6.37,6.37,0,1,0,0,12.74h16.5a6.37,6.37,0,1,0,0-12.74Z" style="fill:#ffab19"/>
                    </g>
                    <g id="圆角矩形_6_拷贝-2" data-name="圆角矩形 6 拷贝">
                        <path d="M145.17,95.11h-16.5a6.37,6.37,0,0,0,0,12.74h16.5a6.37,6.37,0,1,0,0-12.74Z" style="fill:#ffab19"/>
                        <path d="M145.17,95.11h-16.5a6.37,6.37,0,0,0,0,12.74h16.5a6.37,6.37,0,1,0,0-12.74Z" style="fill:#ffab19"/>
                    </g>
                    <g id="圆角矩形_6_拷贝_2-3" data-name="圆角矩形 6 拷贝 2">
                        <rect x="122.3" y="74.1" width="29.25" height="12.75" rx="6.37" style="fill:#ffab19"/>
                        <path d="M145.17,74.1h-16.5a6.38,6.38,0,0,0-6.37,6.38h0a6.37,6.37,0,0,0,6.37,6.37h16.5a6.38,6.38,0,0,0,6.38-6.37h0a6.38,6.38,0,0,0-6.38-6.38Z" style="fill:#ffab19"/>
                    </g>
                    <g id="圆角矩形_6_拷贝_2-4" data-name="圆角矩形 6 拷贝 2">
                        <rect x="122.3" y="116.1" width="29.25" height="12.75" rx="6.37" style="fill:#ffab19"/>
                        <path d="M145.17,116.1h-16.5a6.38,6.38,0,0,0-6.37,6.38h0a6.37,6.37,0,0,0,6.37,6.37h16.5a6.38,6.38,0,0,0,6.38-6.37h0a6.38,6.38,0,0,0-6.38-6.38Z" style="fill:#ffab19"/>
                    </g>
                    <text transform="translate(161.19 148.7)" style="font-size:152px;fill:#ffab19;font-family:Chango-Regular, Chango">penBlock</text>
                    <text transform="translate(161.19 148.7)" style="font-size:152px;fill:none;stroke:#fff;stroke-miterlimit:1;stroke-width:39px;font-family:Chango-Regular, Chango">penBlock</text>
                    <text transform="translate(161.19 148.7)" style="font-size:152px;fill:#ffab19;font-family:Chango-Regular, Chango">penBlock</text>
                </g>
            </g>
        </g>
    </g>
</svg>