<?xml version="1.0" encoding="utf-8"?>
<!-- Generator: Adobe Illustrator 21.0.0, SVG Export Plug-In . SVG Version: 6.00 Build 0)  -->
<svg version="1.1" id="图层_1" xmlns="http://www.w3.org/2000/svg" xmlns:xlink="http://www.w3.org/1999/xlink" x="0px" y="0px"
	 viewBox="0 0 171 152.6" style="enable-background:new 0 0 171 152.6;" xml:space="preserve">
<style type="text/css">
	.st0{fill:#FFFFFF;}
	.st1{fill:#FFAB19;}
</style>
<g>
	<path class="st0" d="M85.4,0c16.3,0,32.6,0,48.9,0c6.2,0,12.1,1.2,17.5,4.3c12,6.8,18.8,17.1,19,30.9c0.3,27.4,0.2,54.7,0,82.1
		c-0.1,17.1-13.1,32.1-30.1,34.7c-2,0.3-4.1,0.5-6.2,0.5c-32.7,0-65.4,0.1-98.1-0.1c-14.9-0.1-25.9-7.1-32.8-20.4
		c-2.4-4.7-3.6-9.8-3.6-15C0,89.9-0.1,62.7,0.1,35.5C0.3,17.4,13.5,3.4,30.3,0.5C32.6,0.2,34.9,0,37.2,0C53.3,0,69.4,0,85.4,0z"/>
	<path class="st1" d="M30,32c2.2,0,4.5-0.1,6.7,0c1.4,0.1,1.9-0.4,2.2-1.8c1.4-5.4,4.8-9.1,10.2-10.8c1.6-0.5,3.3-0.7,5-0.7
		c20.6,0,41.3,0,61.9,0c7.6,0,13.1,4.3,15.1,11.5c0.4,1.3,0.8,1.8,2.3,1.8c3.8-0.1,7.7,0.1,11.5-0.1c3.8-0.2,7.1,2.9,6.9,6.9
		c-0.2,2.6,0,5.3,0,7.9c-0.1,4.2-2.5,6.7-6.7,6.8c-3.8,0.1-7.5,0-11.3,0c-2.1,0-2.1,0-2.1,2.1c0,2.8,0,5.6,0,8.4
		c0,1.1,0.4,1.5,1.5,1.5c3.8,0,7.7,0.1,11.5-0.1c4.2-0.2,7.4,2.9,7.2,7.1c-0.2,2.5,0,5.1,0,7.7c0,4.2-2.5,6.7-6.7,6.8
		c-3.8,0.1-7.5,0-11.3,0c-2.2,0-2.2,0-2.2,2.3c0,2.6,0,5.3,0,7.9c0,1.9,0,1.9,2,1.9c3.7,0,7.4,0,11,0c1.8,0,3.5,0.4,4.9,1.6
		c1.4,1.2,2.2,2.7,2.2,4.6c0,3,0.1,6.1,0,9.1c-0.1,3.6-2.6,6.2-6.2,6.2c-3.9,0.1-7.8,0-11.8,0c-2.1,0-2.1,0-2.6,1.9
		c-1.9,7-7.6,11.4-14.8,11.4c-20.8,0-41.6,0-62.4,0c-7.5,0-13.2-4.4-15-11.7c-0.3-1.3-0.9-1.6-2.1-1.6c-4.3,0.1-8.6-0.1-13,0.1
		c-3.7,0.1-7-2.4-7-6.8c0-2.6,0-5.3,0-7.9c0.1-4.2,2.7-6.8,7-6.9c4.2-0.1,8.5,0,12.7,0c1.8,0,1.9,0,1.9-1.8c0-2.8,0-5.6,0-8.4
		c0-1.9,0-1.9-2-1.9c-4,0-8,0-12,0c-5,0-7.5-2.5-7.5-7.5c0-2.4,0-4.8,0-7.2c0-4.6,3.5-7,6.9-6.9c4.2,0.2,8.5,0.1,12.7,0
		c1.9,0,1.9,0,2-2c0-2.7,0-5.4,0-8.2c0-1.8,0-1.8-1.9-1.8c-4,0-8,0-12,0c-5.3,0-7.7-2.4-7.7-7.6c0-2.4,0-4.8,0-7.2
		c-0.1-4.3,3.2-7.1,6.9-6.9C25.9,32.2,27.9,32,30,32z"/>
	<path class="st0" d="M67.9,61.9c-7.9,0-14.2-6.4-14.2-14.4c0-8,6.5-14.5,14.5-14.4c7.8,0.1,14.3,6.7,14.3,14.4
		C82.5,55.6,76,62,67.9,61.9z"/>
</g>
</svg>
